<svg width="164" height="20" viewBox="0 0 164 20" fill="none" xmlns="http://www.w3.org/2000/svg">
<path d="M0 5L7.52233 0.223462H9.40292V19.7765H6.65221V3.85475L1.51569 7.23464L0 5Z" fill="white"/>
<path d="M21.7048 0C24.3245 0 26.2238 0.47486 27.4027 1.42458C28.6003 2.35568 29.199 3.87337 29.199 5.97765C29.199 7.3743 28.9371 8.48231 28.4131 9.30168C27.8892 10.1024 27.0471 10.689 25.887 11.0615L19.0663 13.352C18.4114 13.5754 17.9343 13.892 17.6349 14.3017C17.3542 14.7114 17.2138 15.2793 17.2138 16.0056V17.2067H29.3394V19.7765H14.4631V16.257C14.4631 13.5196 15.6046 11.7784 17.8875 11.0335L24.6239 8.74302C25.2788 8.51955 25.7466 8.20298 26.0273 7.79329C26.308 7.38361 26.4483 6.80633 26.4483 6.06145C26.4483 4.85102 26.0647 3.96648 25.2975 3.40782C24.5303 2.84916 23.3047 2.56983 21.6206 2.56983C19.9739 2.56983 18.7576 2.83985 17.9717 3.37989C17.2045 3.91992 16.8209 4.77653 16.8209 5.94972H14.0702C14.0702 3.86406 14.6783 2.35568 15.8946 1.42458C17.1109 0.47486 19.0476 0 21.7048 0Z" fill="white"/>
<path d="M58.452 2.96089H50.1999V19.7765H47.2808V2.96089H39.0287V0.223462H58.452V2.96089Z" fill="white"/>
<path d="M64.5429 19.7765H61.6238V0.223462H71.8407C74.1984 0.223462 75.9106 0.67039 76.9772 1.56425C78.0438 2.4581 78.5771 3.9013 78.5771 5.89385C78.5771 8.42644 77.6789 10.1024 75.8825 10.9218C77.5666 11.5922 78.4087 12.9981 78.4087 15.1397V19.7765H75.5176V15.2514C75.5176 14.2272 75.2182 13.4916 74.6194 13.0447C74.0206 12.5791 73.0757 12.3464 71.7845 12.3464H64.5429V19.7765ZM64.5429 9.60894H71.6723C73.0757 9.60894 74.0955 9.34823 74.7317 8.82681C75.3679 8.28678 75.686 7.43017 75.686 6.25698C75.686 5.10242 75.3679 4.26443 74.7317 3.74302C74.0955 3.2216 73.0757 2.96089 71.6723 2.96089H64.5429V9.60894Z" fill="white"/>
<path d="M84.4348 19.7765H81.3192L90.4134 0.223462H93.7535L102.848 19.7765H99.7602L97.8235 15.5866L86.3716 15.6145L84.4348 19.7765ZM92.0975 3.24022L87.6346 12.8771L96.5604 12.8492L92.0975 3.24022Z" fill="white"/>
<path d="M106.724 17.6257C105.134 16.0428 104.338 13.5009 104.338 10C104.338 6.49907 105.134 3.95717 106.724 2.3743C108.315 0.791433 110.869 0 114.387 0C117.325 0 119.58 0.549348 121.151 1.64804C122.723 2.72812 123.724 4.45065 124.155 6.81564H121.151C120.74 5.40037 119.982 4.36685 118.878 3.71508C117.793 3.06331 116.296 2.73743 114.387 2.73743C111.898 2.73743 110.083 3.31471 108.942 4.46927C107.819 5.60521 107.258 7.44879 107.258 10C107.258 12.5512 107.819 14.4041 108.942 15.5587C110.083 16.6946 111.898 17.2626 114.387 17.2626C116.296 17.2626 117.793 16.9367 118.878 16.2849C119.982 15.6331 120.74 14.5996 121.151 13.1844H124.155C123.724 15.5493 122.723 17.2812 121.151 18.3799C119.58 19.46 117.325 20 114.387 20C110.869 20 108.315 19.2086 106.724 17.6257Z" fill="white"/>
<path d="M128.094 19.7765V0.223462H131.013V8.40782H134.69L141.623 0.223462H145.216L137.132 9.72067L145.834 19.7765H142.185L134.719 11.1453H131.013V19.7765H128.094Z" fill="white"/>
<path d="M146.626 14.2179H149.629C149.947 15.2793 150.593 16.0521 151.566 16.5363C152.557 17.0205 153.961 17.2626 155.776 17.2626C159.35 17.2626 161.137 16.3408 161.137 14.4972C161.137 13.6592 160.679 12.9888 159.762 12.486C158.845 11.9832 157.254 11.5549 154.99 11.2011C151.921 10.6797 149.807 10.0186 148.647 9.21788C147.486 8.39851 146.906 7.17877 146.906 5.55866C146.906 1.87151 149.62 0.0279325 155.046 0.0279325C157.703 0.0279325 159.715 0.484171 161.081 1.39665C162.447 2.2905 163.298 3.76164 163.635 5.81006H160.604C160.323 4.72998 159.724 3.94786 158.807 3.46369C157.89 2.97951 156.571 2.73743 154.85 2.73743C151.463 2.73743 149.769 3.62197 149.769 5.39106C149.769 6.19181 150.181 6.81564 151.004 7.26257C151.846 7.69087 153.353 8.08194 155.523 8.43575C158.742 9.01303 160.959 9.72067 162.176 10.5587C163.392 11.3966 164 12.6443 164 14.3017C164 18.1006 161.156 20 155.467 20C152.735 20 150.668 19.5438 149.264 18.6313C147.861 17.7188 146.981 16.2477 146.626 14.2179Z" fill="white"/>
</svg>
