<svg width="329" height="329" viewBox="0 0 329 329" fill="none" xmlns="http://www.w3.org/2000/svg">
<path d="M157.72 7.71815C158.083 3.36582 161.721 0.0180664 166.089 0.0180664C170.533 0.0180664 174.207 3.48042 174.471 7.91656L183.776 164.23H144.678L157.72 7.71815Z" fill="white"/>
<path d="M157.72 320.743C158.083 325.095 161.721 328.443 166.089 328.443C170.533 328.443 174.207 324.981 174.471 320.545L183.776 164.231H144.678L157.72 320.743Z" fill="white"/>
<path d="M7.71937 170.737C3.36704 170.374 0.0192866 166.736 0.0192865 162.368C0.0192864 157.924 3.48164 154.25 7.91778 153.986L164.231 144.681L164.231 183.78L7.71937 170.737Z" fill="white"/>
<path d="M320.742 170.737C325.094 170.374 328.442 166.736 328.442 162.368C328.442 157.924 324.98 154.25 320.543 153.986L164.23 144.681L164.23 183.779L320.742 170.737Z" fill="white"/>
</svg>
